<?xml version="1.0" standalone="no"?>
<!DOCTYPE svg PUBLIC "-//W3C//DTD SVG 20010904//EN"
 "http://www.w3.org/TR/2001/REC-SVG-20010904/DTD/svg10.dtd">
<svg version="1.0" xmlns="http://www.w3.org/2000/svg"
 width="100.000000pt" height="100.000000pt" viewBox="0 0 100.000000 100.000000"
 preserveAspectRatio="xMidYMid meet">

<g transform="translate(0.000000,100.000000) scale(0.100000,-0.100000)"
fill="#000000" stroke="none">
<path d="M472 782 c-34 -38 -43 -44 -51 -32 -8 12 -16 7 -45 -25 -19 -22 -35
-43 -36 -47 0 -14 33 -8 52 8 14 13 21 14 32 5 12 -10 19 -6 37 18 21 29 24
30 41 14 17 -15 18 -14 18 16 l0 33 50 -42 c28 -23 50 -36 50 -30 0 9 8 7 25
-4 31 -21 38 -20 26 2 -26 43 -52 65 -63 54 -18 -18 -23 -16 -60 33 l-35 45
-41 -48z"/>
<path d="M273 700 c3 -13 0 -20 -8 -20 -19 0 -29 -20 -27 -53 2 -22 -3 -30
-18 -34 -11 -3 -20 -10 -20 -15 0 -6 7 -7 16 -4 19 7 8 -14 -18 -32 -20 -14
-24 -47 -7 -57 6 -4 8 -13 5 -21 -5 -12 44 -14 312 -14 252 1 314 3 301 13
-16 12 -15 17 10 65 9 19 9 24 -5 29 -13 5 -13 7 -2 14 11 8 11 11 -1 18 -8 5
-21 7 -30 4 -14 -4 -14 -3 -1 6 19 13 12 18 -30 22 -21 2 -43 12 -55 26 -24
28 -123 42 -168 24 -34 -13 -53 -61 -56 -140 -1 -24 -13 -22 -17 3 -4 29 -16
56 -24 56 -5 0 -7 6 -4 14 5 14 -71 56 -101 56 -10 0 -15 10 -15 30 0 24 -4
30 -21 30 -16 0 -20 -5 -16 -20z m294 -76 c-3 -3 -12 -4 -20 -2 -11 2 -12 9
-5 28 l10 25 11 -23 c5 -12 8 -25 4 -28z m111 30 c6 -2 12 -8 12 -14 0 -6 -24
-10 -55 -10 -47 0 -55 3 -55 19 0 17 6 18 43 14 23 -2 48 -6 55 -9z m-354 -19
c-22 -16 -44 -19 -44 -6 0 8 16 14 54 20 6 0 1 -6 -10 -14z m199 -5 c-3 -11
-9 -20 -14 -20 -10 0 -12 24 -2 33 13 13 21 7 16 -13z m-149 -22 c-3 -4 -11
-5 -19 -1 -21 7 -19 12 4 10 11 0 18 -5 15 -9z m316 -4 c0 -8 -5 -12 -10 -9
-6 4 -8 11 -5 16 9 14 15 11 15 -7z m-26 -9 c6 -17 -9 -21 -19 -5 -12 20 -44
10 -57 -17 -7 -15 -22 -29 -33 -30 -17 -3 -17 -2 3 7 12 5 22 15 22 23 0 34
72 53 84 22z m-284 -63 c0 -7 4 -11 9 -7 5 3 13 0 16 -6 5 -7 1 -10 -10 -7 -9
1 -23 19 -31 38 -12 31 -12 33 1 16 8 -11 15 -26 15 -34z m145 18 c3 -5 1 -10
-4 -10 -6 0 -11 5 -11 10 0 6 2 10 4 10 3 0 8 -4 11 -10z m95 1 c0 -5 -7 -11
-14 -14 -10 -4 -13 -1 -9 9 6 15 23 19 23 5z m-270 -21 c0 -22 -15 -27 -26 -8
-4 7 -3 8 4 4 7 -4 12 -3 12 3 0 5 -6 12 -12 14 -8 3 -6 6 5 6 11 1 17 -6 17
-19z m-126 -8 c3 -5 -1 -9 -9 -9 -8 0 -15 4 -15 9 0 4 4 8 9 8 6 0 12 -4 15
-8z m69 -16 c3 -8 -2 -16 -14 -19 -14 -4 -19 0 -19 14 0 22 25 26 33 5z m322
-4 c-3 -3 -11 0 -18 7 -9 10 -8 11 6 5 10 -3 15 -9 12 -12z m-35 0 c0 -5 -13
-9 -30 -9 -16 0 -30 4 -30 9 0 4 14 8 30 8 17 0 30 -4 30 -8z m156 -4 c3 -4
-5 -8 -18 -8 -13 0 -33 -3 -46 -6 -18 -5 -21 -3 -16 10 4 12 17 16 41 14 19
-1 37 -6 39 -10z"/>
<path d="M618 433 c7 -3 16 -2 19 1 4 3 -2 6 -13 5 -11 0 -14 -3 -6 -6z"/>
<path d="M220 381 c0 -22 -4 -43 -10 -46 -16 -10 -12 -55 5 -55 8 0 15 5 15
10 0 6 16 10 35 10 19 0 35 -4 35 -10 0 -5 7 -10 15 -10 9 0 15 9 15 25 0 14
-4 25 -10 25 -5 0 -10 20 -10 45 l0 45 -45 0 -45 0 0 -39z m60 -21 c0 -22 -5
-30 -18 -30 -15 0 -18 6 -14 30 2 17 10 30 18 30 9 0 14 -11 14 -30z"/>
<path d="M340 360 c0 -47 3 -60 15 -60 8 0 15 6 15 14 0 7 14 16 30 20 34 6
45 25 36 61 -6 22 -12 25 -51 25 l-45 0 0 -60z m70 19 c0 -12 -29 -24 -37 -16
-3 4 -3 13 0 21 6 16 37 11 37 -5z"/>
<path d="M462 360 c-20 -59 -20 -60 -1 -60 10 0 19 5 19 10 0 14 26 13 50 -2
30 -19 33 -5 14 56 -14 46 -22 56 -40 56 -18 0 -26 -11 -42 -60z m44 -7 c-10
-10 -19 5 -10 18 6 11 8 11 12 0 2 -7 1 -15 -2 -18z"/>
<path d="M576 412 c-6 -10 -6 -71 1 -94 7 -28 29 -21 43 12 16 37 26 38 25 3
0 -18 5 -28 15 -28 11 0 16 14 18 58 3 51 1 57 -17 57 -11 0 -22 -9 -26 -19
-3 -11 -12 -24 -19 -30 -10 -8 -12 -4 -8 19 3 22 0 30 -11 30 -9 0 -18 -4 -21
-8z"/>
<path d="M700 361 l0 -61 33 0 c49 0 57 10 54 65 l-2 50 -42 3 -43 3 0 -60z
m52 24 c0 -5 -5 -11 -11 -13 -6 -2 -11 4 -11 13 0 9 5 15 11 13 6 -2 11 -8 11
-13z m8 -45 c0 -5 -7 -10 -15 -10 -8 0 -15 5 -15 10 0 6 7 10 15 10 8 0 15 -4
15 -10z"/>
<path d="M290 255 c0 -16 -25 -21 -34 -7 -2 4 -17 8 -33 7 -22 0 -28 -5 -30
-25 -2 -23 -2 -23 6 -5 5 11 10 15 10 9 1 -17 44 -26 53 -11 6 9 12 9 28 -1
26 -16 40 -8 40 24 0 17 -5 24 -20 24 -11 0 -20 -7 -20 -15z"/>
<path d="M342 243 c4 -36 47 -43 56 -9 6 20 6 20 13 -4 6 -23 7 -23 8 8 1 22
-4 32 -14 32 -9 0 -15 -9 -16 -22 l0 -23 -9 23 c-14 33 -42 29 -38 -5z m15 -5
c-3 -8 -6 -5 -6 6 -1 11 2 17 5 13 3 -3 4 -12 1 -19z"/>
<path d="M434 255 c-8 -21 3 -48 19 -43 19 7 22 58 2 58 -8 0 -18 -7 -21 -15z
m26 -11 c0 -8 -5 -12 -10 -9 -6 4 -8 11 -5 16 9 14 15 11 15 -7z"/>
<path d="M482 241 c2 -19 9 -26 26 -27 12 -1 25 3 28 8 4 6 10 5 15 -3 6 -10
9 -4 9 17 0 30 -2 31 -41 31 -37 0 -40 -1 -37 -26z m48 -10 c0 -5 -9 -7 -20
-4 -11 3 -20 12 -20 20 0 11 4 11 20 3 11 -6 20 -15 20 -19z"/>
<path d="M570 240 c0 -26 3 -31 10 -20 9 13 11 13 20 0 9 -13 10 -13 10 0 0
13 1 13 10 0 7 -12 12 -12 22 -2 9 9 9 12 0 12 -7 0 -12 7 -12 16 0 8 5 12 10
9 6 -3 10 -1 10 5 0 13 -42 9 -52 -5 -5 -6 -12 -4 -18 5 -7 11 -10 6 -10 -20z"/>
<path d="M660 240 c0 -24 4 -31 17 -28 9 2 18 9 21 16 2 8 -3 10 -15 6 -13 -4
-14 -3 -5 3 10 8 10 12 -3 23 -13 11 -15 8 -15 -20z"/>
<path d="M706 261 c-2 -3 0 -17 5 -31 4 -14 8 -18 8 -10 1 13 3 13 11 0 6 -10
9 -6 8 16 -1 19 -6 31 -15 31 -8 0 -15 -3 -17 -6z"/>
<path d="M751 241 c-1 -28 1 -31 13 -22 11 9 15 9 19 -1 3 -7 6 2 6 21 1 28
-1 31 -13 22 -11 -9 -15 -9 -19 1 -3 7 -6 -2 -6 -21z"/>
</g>
</svg>
