<?xml version="1.0" standalone="no"?>
<!DOCTYPE svg PUBLIC "-//W3C//DTD SVG 20010904//EN"
 "http://www.w3.org/TR/2001/REC-SVG-20010904/DTD/svg10.dtd">
<svg version="1.0" xmlns="http://www.w3.org/2000/svg"
 width="1024.000000pt" height="1024.000000pt" viewBox="0 0 1024.000000 1024.000000"
 preserveAspectRatio="xMidYMid meet">

<g transform="translate(0.000000,1024.000000) scale(0.100000,-0.100000)"
fill="#000000" stroke="none">
<path d="M8378 9833 c7 -3 16 -2 19 1 4 3 -2 6 -13 5 -11 0 -14 -3 -6 -6z"/>
<path d="M5230 8480 c-7 -12 -67 -88 -134 -169 -162 -195 -365 -442 -514 -628
-67 -84 -127 -155 -134 -159 -12 -8 -48 29 -119 121 -21 28 -60 74 -86 104
l-49 53 -130 -153 c-184 -218 -634 -768 -640 -782 -3 -9 15 -12 63 -12 38 0
129 -4 204 -9 l135 -8 195 201 194 202 30 -38 c53 -67 207 -233 215 -233 5 0
42 39 82 87 40 48 142 168 227 267 85 100 163 196 174 214 l19 32 107 -99
c173 -161 208 -191 215 -184 3 3 6 152 6 330 0 177 3 323 6 323 3 0 95 -78
203 -173 108 -95 305 -269 439 -386 133 -117 242 -216 242 -220 0 -3 24 -32
53 -63 46 -51 58 -58 90 -58 34 0 37 2 37 30 0 16 -14 93 -30 171 -17 78 -29
144 -26 146 2 3 47 -31 98 -74 52 -43 138 -113 191 -157 53 -43 118 -102 145
-130 l48 -53 108 -16 c107 -17 148 -34 178 -76 7 -9 20 -21 28 -26 12 -7 12
-5 -1 11 -9 10 -110 136 -225 279 -114 143 -249 310 -299 371 -49 61 -124 152
-165 202 -41 51 -78 92 -83 92 -5 0 -73 -65 -151 -145 l-141 -145 -127 157
c-69 87 -191 239 -269 338 -421 530 -392 497 -409 465z"/>
<path d="M2883 7356 c-89 -28 -134 -90 -136 -188 -1 -62 35 -116 107 -160 31
-18 56 -38 56 -44 0 -6 12 -16 26 -23 15 -6 24 -14 21 -17 -3 -3 -14 -1 -25 5
-12 6 -33 11 -47 11 -15 0 -45 14 -68 33 -38 30 -48 33 -97 31 -95 -5 -116
-12 -155 -55 -44 -49 -185 -330 -185 -369 0 -15 9 -39 21 -54 l20 -26 151 0
c83 0 149 -2 146 -5 -3 -3 -51 -10 -108 -15 -57 -5 -113 -16 -126 -24 -26 -18
-52 -90 -61 -168 -5 -51 -3 -62 20 -97 27 -40 101 -96 190 -141 26 -14 43 -26
37 -28 -18 -6 -117 28 -154 53 l-38 26 -132 -15 c-154 -18 -336 -52 -349 -65
-5 -5 -7 -19 -5 -32 3 -24 5 -24 138 -29 112 -5 142 -9 176 -28 58 -30 108
-91 161 -196 38 -75 83 -213 83 -250 0 -6 -29 44 -64 111 -134 255 -202 312
-373 313 -90 0 -127 -9 -137 -36 -12 -32 11 -41 122 -46 72 -3 115 -9 129 -19
18 -12 37 -34 108 -121 13 -16 8 -17 -68 -11 -69 4 -91 2 -139 -17 -236 -89
-320 -428 -172 -699 29 -54 94 -122 138 -145 l29 -15 -161 -77 c-89 -43 -159
-80 -158 -83 6 -9 6756 -2 6756 7 0 4 -104 50 -230 101 -127 51 -232 97 -235
101 -2 4 14 22 35 39 82 65 135 217 155 439 7 68 9 73 34 78 51 12 89 44 115
96 29 58 33 103 12 151 -23 55 -45 67 -142 77 -136 15 -134 14 -134 60 0 39 1
40 34 40 19 0 69 -5 112 -11 44 -6 80 -7 85 -2 11 11 -23 144 -45 178 -25 37
-60 56 -138 74 l-71 16 -19 65 c-10 36 -26 76 -36 90 -28 37 -96 66 -207 88
-92 19 -171 29 -519 66 -79 9 -133 19 -141 27 -7 8 -43 86 -80 174 -37 88 -75
169 -84 179 -33 39 -100 57 -319 86 -119 16 -334 46 -477 65 -385 53 -424 54
-570 17 -190 -49 -447 -133 -526 -173 -44 -22 -86 -70 -110 -124 -9 -22 -38
-134 -63 -248 -26 -115 -54 -225 -62 -245 -9 -21 -20 -50 -26 -67 -11 -34 -67
-348 -63 -353 1 -2 14 0 28 3 20 6 30 18 43 58 40 125 53 145 102 162 26 9 75
19 108 22 77 7 75 10 143 -185 56 -160 71 -189 107 -202 28 -11 330 -13 412
-3 65 7 68 12 122 196 70 239 123 367 159 387 54 28 257 53 446 54 242 1 234
5 310 -153 31 -63 53 -116 51 -119 -3 -2 -63 -1 -133 4 l-127 9 -21 32 c-11
17 -31 50 -45 72 l-24 41 -201 0 c-110 0 -205 -4 -211 -8 -21 -13 -56 -94
-111 -256 -65 -192 -113 -297 -150 -326 -27 -21 -34 -22 -301 -18 -265 3 -274
4 -291 24 -9 12 -34 88 -55 170 -43 166 -68 234 -88 234 -28 0 -122 -30 -134
-42 -7 -7 -24 -51 -39 -98 -14 -47 -32 -98 -40 -115 l-15 -30 4 28 c2 20 -1
27 -13 27 -31 0 -48 -24 -60 -84 -17 -90 -15 -147 7 -152 15 -5 17 -17 14
-122 -2 -64 -6 -119 -8 -121 -3 -4 -221 95 -233 105 -2 2 3 12 12 22 22 24 57
102 57 128 0 11 -9 29 -21 40 -23 21 -73 113 -65 121 9 9 67 -9 73 -23 8 -23
23 -16 23 11 0 41 -20 71 -64 95 -46 25 -96 69 -96 83 0 5 26 7 60 5 64 -5 71
1 45 40 -10 13 -38 28 -73 37 -31 9 -73 24 -92 33 l-35 17 65 5 64 5 -32 27
c-37 31 -45 34 -131 47 -35 6 -65 12 -67 14 -7 7 39 132 57 159 23 32 24 60 3
122 -18 54 -39 66 -110 66 l-45 0 20 -27 c36 -50 56 -193 27 -193 -21 0 -32
19 -51 85 -9 33 -26 77 -38 98 l-21 38 -143 -2 c-79 -2 -142 -5 -140 -8 47
-88 97 -200 97 -218 0 -40 -37 -29 -61 20 -41 79 -117 183 -143 195 -15 7 -38
12 -51 12 -14 0 -25 4 -25 9 0 12 205 31 403 38 129 5 167 9 167 19 0 46 -172
70 -430 60 -125 -5 -160 -3 -176 8 -11 8 -37 17 -58 20 -43 7 -56 13 -56 27 0
12 157 12 165 -1 3 -5 22 -10 41 -10 31 0 37 4 50 36 31 73 -17 120 -111 109
-36 -5 -62 -2 -89 9 -23 9 -85 18 -159 22 -67 3 -139 10 -160 16 -43 10 -227
108 -227 121 0 4 14 7 30 7 43 0 82 41 78 81 -3 30 -7 32 -68 48 -114 28 -167
73 -177 147 -8 62 7 69 156 70 92 0 135 5 160 16 l35 16 -62 31 c-104 52 -211
91 -250 90 -20 0 -56 -6 -79 -13z m3507 -561 c417 -57 577 -82 593 -92 18 -11
119 -234 113 -249 -5 -13 -15 -15 -44 -10 -20 4 -255 9 -522 12 -267 3 -502
10 -522 15 -21 5 -42 18 -48 29 -16 30 -79 331 -73 347 7 18 -42 23 503 -52z
m-593 -130 c17 -88 35 -186 39 -217 l6 -57 -33 -5 c-19 -3 -70 -11 -114 -17
-44 -6 -107 -17 -140 -25 -93 -22 -95 -21 -90 29 2 23 9 110 15 192 14 184 15
192 41 206 30 16 201 59 224 56 18 -2 24 -22 52 -162z m-3068 93 c-12 -24 -28
-51 -37 -60 -14 -17 -11 -18 59 -18 41 1 121 5 178 10 l104 9 40 -29 c42 -31
60 -33 37 -5 -12 14 -10 16 11 11 84 -19 157 -26 261 -26 87 0 129 -4 156 -16
l37 -16 -50 -14 c-27 -8 -94 -19 -147 -24 -93 -9 -100 -8 -150 15 -29 14 -70
25 -91 25 -35 0 -38 -2 -35 -26 2 -22 19 -34 98 -75 52 -27 105 -60 119 -73
l24 -25 -39 -6 c-57 -10 -184 -44 -204 -55 -9 -5 -22 -15 -29 -23 -10 -13 -23
-12 -99 5 -48 11 -98 22 -112 25 -80 14 -78 12 -35 36 72 41 73 82 2 102 l-37
10 31 14 c18 8 43 10 62 6 87 -18 122 -17 150 5 32 25 34 48 7 82 -19 25 -22
25 -205 30 -103 3 -191 10 -196 15 -6 6 11 31 48 71 32 34 59 61 61 62 1 0 -7
-19 -19 -42z m2671 -40 c0 -13 -7 -72 -14 -133 -8 -60 -17 -151 -21 -202 -4
-51 -12 -96 -19 -101 -10 -7 -245 -52 -275 -52 -18 0 -13 41 18 146 16 55 37
129 45 167 26 110 45 129 181 173 88 28 85 28 85 2z m-1718 -399 c38 -10 72
-39 156 -132 50 -54 43 -64 -36 -52 -39 6 -57 16 -103 60 -69 65 -86 69 -273
63 -175 -7 -229 -20 -261 -63 -81 -106 -145 -353 -145 -561 0 -77 -6 -104 -22
-104 -16 0 -3 295 16 403 22 122 72 271 103 307 32 39 62 54 138 69 143 30
333 34 427 10z m-667 -63 l-16 -37 -29 31 c-17 18 -30 33 -30 35 0 1 11 0 24
-2 13 -3 32 0 43 5 25 14 26 11 8 -32z m4071 10 c28 -28 34 -41 34 -79 0 -58
-33 -108 -83 -124 -114 -38 -192 116 -107 207 23 25 36 30 75 30 40 0 52 -5
81 -34z m-4268 -13 c65 -31 112 -90 112 -141 0 -19 -7 -61 -15 -94 -21 -81
-97 -276 -102 -261 -2 6 12 77 31 156 46 185 46 206 1 256 -31 34 -104 78
-160 97 l-20 6 20 8 c27 12 70 3 133 -27z m4443 -23 c9 -44 12 -332 3 -354 -4
-10 -17 -16 -35 -16 -16 0 -29 1 -30 3 0 1 -2 84 -6 183 -5 196 0 228 40 222
15 -2 23 -13 28 -38z m140 -5 c11 -53 10 -363 -2 -370 -5 -4 -21 -4 -35 -1
l-24 6 0 194 c0 106 3 196 7 200 17 17 48 0 54 -29z m127 12 c13 -15 27 -310
18 -362 -6 -32 -10 -36 -34 -33 l-27 3 -3 194 c-2 149 1 196 10 203 18 11 24
10 36 -5z m140 -20 c9 -10 16 -225 12 -369 0 -13 -8 -18 -29 -18 l-28 0 -5
183 c-3 100 -1 190 4 200 10 20 31 22 46 4z m136 -19 c13 -18 16 -54 16 -189
0 -92 -3 -174 -6 -183 -3 -9 -14 -16 -23 -16 -37 0 -41 19 -41 205 0 127 4
185 12 193 17 17 25 15 42 -10z m199 -18 c75 -59 50 -220 -33 -220 -46 0 -90
63 -90 130 0 94 61 138 123 90z m-2455 -41 c3 -24 -1 -27 -42 -33 -54 -8 -66
-3 -66 29 0 25 20 34 75 31 25 -1 31 -6 33 -27z m-2051 -199 l26 0 -25 -24
c-14 -12 -42 -26 -62 -29 -51 -8 -146 -53 -179 -85 -16 -15 -40 -46 -54 -70
-35 -59 -40 -46 -7 19 40 80 128 162 195 181 30 9 60 14 67 12 8 -2 25 -4 39
-4z m192 -73 c14 -14 46 -37 71 -52 96 -59 111 -92 65 -147 -14 -17 -24 -36
-22 -42 2 -6 25 -12 51 -14 54 -4 66 -21 66 -99 0 -51 -47 -182 -68 -191 -8
-2 -29 2 -48 11 -33 16 -34 18 -34 77 l0 60 34 0 c62 0 57 34 -6 56 -27 9 -34
18 -47 67 -9 31 -25 67 -36 79 -33 37 -54 71 -49 80 3 4 18 8 35 8 16 0 29 4
29 8 0 19 -27 32 -64 32 -27 0 -59 11 -95 31 l-55 32 35 18 c44 25 102 19 138
-14z m2807 -123 c13 -23 34 -79 45 -125 18 -69 21 -102 16 -194 -6 -130 -31
-220 -88 -317 -51 -87 -66 -95 -29 -16 98 212 100 499 4 690 l-26 53 27 -25
c15 -14 38 -43 51 -66z m519 21 c116 -8 338 -24 495 -35 157 -11 384 -27 505
-35 302 -21 322 -24 353 -50 15 -13 25 -26 22 -29 -3 -3 -48 -1 -100 4 -52 5
-167 14 -255 20 -439 29 -657 44 -875 60 -74 6 -180 13 -235 16 -55 3 -109 8
-120 9 -11 2 -28 4 -37 4 -36 2 -9 50 27 51 6 0 105 -7 220 -15z m-708 -60
c11 -8 34 -40 50 -72 26 -55 28 -65 28 -188 0 -125 -1 -133 -31 -195 -52 -108
-100 -143 -168 -120 -125 41 -156 341 -53 510 50 83 110 106 174 65z m-2843
-39 c138 -58 176 -334 60 -441 -53 -49 -140 -28 -194 47 -77 106 -80 265 -7
353 45 55 82 66 141 41z m1637 -82 c42 -94 22 -294 -37 -371 -64 -85 -123 11
-111 180 10 142 51 237 103 237 20 0 29 -9 45 -46z m-2193 26 c-51 -15 -128
-22 -128 -12 0 12 35 19 105 20 40 0 45 -1 23 -8z m1151 -152 c8 -18 46 -65
85 -103 l71 -71 -146 -57 c-80 -31 -150 -57 -156 -57 -5 0 1 22 15 50 13 27
26 71 29 97 2 27 12 76 21 111 15 55 20 62 42 62 19 0 29 -8 39 -32z m-1822
-33 c53 -35 103 -144 103 -225 0 -41 -28 -124 -51 -154 -101 -128 -250 -11
-250 197 0 154 99 245 198 182z m739 -166 c13 -46 29 -74 66 -114 54 -60 54
-59 -27 -85 -22 -7 -125 -46 -228 -87 -104 -41 -191 -72 -193 -70 -3 2 7 18
21 35 14 17 32 46 40 66 14 33 14 37 0 42 -8 4 -15 13 -15 21 0 9 6 13 15 10
21 -9 28 8 31 76 3 52 0 61 -22 82 -41 38 -24 51 89 67 56 9 125 16 154 17
l52 1 17 -61z m4228 -47 c25 -32 75 -52 127 -52 33 0 47 6 69 30 25 27 31 29
79 23 51 -6 51 -6 51 -42 0 -52 34 -168 59 -202 27 -37 27 -41 -6 -28 -77 29
-301 89 -334 89 -50 0 -264 -52 -364 -88 -75 -28 -212 -59 -219 -51 -2 2 15
36 38 75 39 66 82 176 105 269 l10 40 183 -20 c169 -18 184 -21 202 -43z
m-1524 10 c34 -24 181 -24 229 1 42 21 41 21 41 -3 0 -11 13 -61 30 -112 16
-51 28 -94 26 -96 -4 -3 -73 16 -229 64 -100 31 -119 30 -230 -7 -94 -31 -140
-37 -195 -25 l-31 7 19 32 c10 18 28 57 39 87 32 85 30 83 113 81 42 -1 86 3
99 8 17 6 30 5 44 -5 11 -8 31 -22 45 -32z"/>
<path d="M6211 5594 c-43 -36 -75 -143 -69 -228 17 -210 174 -179 186 37 6
101 -5 155 -38 189 -35 34 -41 35 -79 2z"/>
<path d="M3387 5593 c-27 -7 -57 -76 -57 -130 1 -147 137 -234 186 -118 32 78
-3 207 -65 239 -31 16 -34 17 -64 9z"/>
<path d="M5032 5547 c-42 -50 -62 -213 -33 -265 46 -83 125 124 89 233 -14 42
-37 55 -56 32z"/>
<path d="M2129 5334 c-21 -22 -24 -35 -24 -98 0 -62 4 -78 27 -113 33 -50 70
-62 107 -35 53 39 62 131 21 213 -33 64 -88 78 -131 33z"/>
<path d="M2978 7179 c-24 -14 -23 -60 3 -93 21 -27 118 -62 145 -52 10 4 14
23 14 74 l0 70 -31 6 c-47 9 -112 7 -131 -5z"/>
<path d="M6202 4495 c11 -94 61 -129 184 -128 119 1 167 31 183 116 4 25 6 49
3 52 -3 3 -88 5 -190 5 l-185 0 5 -45z"/>
<path d="M2296 4298 c-3 -7 -7 -115 -10 -239 -8 -261 -18 -370 -47 -489 -36
-144 -70 -190 -139 -190 -71 0 -71 2 -68 -250 l3 -225 145 0 145 0 3 98 3 97
354 0 354 0 3 -107 3 -108 150 0 150 0 3 243 c2 190 0 242 -10 243 -7 0 -46 0
-85 -1 l-73 -1 -2 468 -3 468 -438 3 c-345 2 -438 0 -441 -10z m562 -590 l-3
-333 -178 -1 c-142 -2 -180 1 -184 12 -2 7 4 37 15 66 43 117 92 400 92 535
l0 53 130 0 130 0 -2 -332z"/>
<path d="M3505 4298 c-3 -7 -4 -281 -3 -608 l3 -595 153 -3 c146 -2 153 -2
160 18 4 11 7 80 6 152 -1 73 2 140 7 149 7 15 33 18 191 21 156 3 192 7 241
25 113 42 199 127 229 226 8 25 13 101 13 187 0 175 -14 226 -88 306 -53 58
-119 95 -212 119 -79 20 -693 23 -700 3z m611 -270 c45 -24 64 -72 64 -160 0
-87 -20 -133 -71 -160 -27 -14 -56 -18 -151 -18 -71 0 -119 4 -123 10 -9 14
-17 329 -9 342 11 17 253 5 290 -14z"/>
<path d="M4735 3714 c-108 -327 -194 -602 -191 -610 4 -11 36 -14 163 -14 183
0 161 -15 208 139 l28 91 202 0 201 0 33 -109 c19 -62 40 -112 48 -115 8 -3
82 -6 164 -6 120 0 151 3 155 14 5 13 -71 253 -303 961 -36 110 -72 210 -79
223 -14 22 -18 22 -224 22 l-209 0 -196 -596z m480 71 c32 -110 60 -206 63
-212 3 -10 -27 -13 -133 -13 -125 0 -136 1 -131 18 8 27 62 207 96 321 17 57
35 99 39 95 4 -5 34 -99 66 -209z"/>
<path d="M5895 4298 c-3 -7 -4 -281 -3 -608 l3 -595 151 -3 150 -3 61 108 c56
99 206 370 299 538 l39 70 5 -355 5 -355 155 0 155 0 0 605 0 605 -152 3 -151
3 -75 -133 c-41 -73 -127 -227 -192 -343 -65 -115 -123 -216 -129 -224 -8 -10
-12 77 -16 340 l-5 354 -148 3 c-112 2 -149 0 -152 -10z"/>
<path d="M7135 4298 c-3 -7 -4 -281 -3 -608 l3 -595 315 -1 c363 -1 432 7 517
58 109 65 163 161 163 289 0 39 -5 90 -11 114 -14 57 -68 119 -130 151 -27 13
-49 26 -49 29 0 2 16 11 35 21 49 23 102 85 116 136 6 24 9 77 7 118 -8 136
-76 226 -206 271 -64 22 -81 23 -410 27 -278 3 -343 1 -347 -10z m592 -258
c57 -34 62 -136 9 -189 -26 -25 -30 -26 -134 -25 -59 1 -119 2 -134 3 l-28 1
0 115 0 115 128 0 c108 0 132 -3 159 -20z m37 -479 c41 -39 53 -91 32 -146
-26 -67 -48 -75 -216 -75 l-140 0 0 126 0 125 149 -3 c142 -3 151 -4 175 -27z"/>
<path d="M8310 3986 c0 -3 9 -10 20 -16 11 -6 20 -8 20 -6 0 3 -9 10 -20 16
-11 6 -20 8 -20 6z"/>
<path d="M5064 2759 c-62 -8 -83 -19 -122 -63 -38 -43 -45 -95 -41 -273 4
-144 18 -182 76 -216 42 -24 131 -33 185 -18 76 22 118 72 133 159 l7 42 -65
0 c-64 0 -65 0 -71 -32 -9 -45 -24 -58 -67 -58 -61 0 -69 21 -69 176 0 119 2
133 20 149 25 23 87 25 101 5 5 -8 12 -27 15 -41 5 -24 12 -27 62 -33 31 -4
60 -2 65 3 14 14 -2 86 -26 122 -45 65 -110 90 -203 78z"/>
<path d="M3565 2744 c-88 -45 -105 -93 -105 -286 0 -107 4 -141 19 -173 37
-82 110 -115 223 -102 65 8 108 34 136 83 21 37 22 48 20 216 -3 199 -7 212
-84 255 -48 28 -162 32 -209 7z m152 -117 c11 -11 16 -121 14 -264 -1 -42 -24
-63 -68 -63 -67 0 -73 15 -73 170 0 143 4 155 50 173 20 8 62 -1 77 -16z"/>
<path d="M4525 2746 c-43 -19 -83 -63 -95 -105 -12 -45 -13 -272 0 -325 12
-54 38 -87 91 -114 37 -20 55 -23 115 -19 79 4 124 24 158 70 18 25 22 46 26
170 7 194 0 241 -41 283 -18 19 -49 39 -69 44 -49 14 -149 12 -185 -4z m163
-136 c9 -18 12 -63 10 -153 -3 -144 -9 -157 -77 -157 -64 0 -71 16 -71 164 0
162 7 179 78 174 38 -2 49 -8 60 -28z"/>
<path d="M5893 2752 l-53 -3 0 -280 0 -279 59 0 c70 0 70 -1 66 129 l-3 91 69
0 69 0 0 -110 0 -110 65 0 65 0 0 280 0 280 -65 0 -64 0 -3 -107 -3 -108 -62
-3 -63 -3 0 104 c0 72 -4 107 -12 113 -7 5 -37 8 -65 6z"/>
<path d="M6387 2739 c-28 -14 -44 -33 -59 -65 -17 -40 -19 -63 -16 -217 3
-161 4 -174 26 -205 32 -45 75 -64 152 -69 54 -4 73 0 110 19 25 13 54 37 66
55 22 33 39 107 29 124 -4 5 -33 9 -66 9 -55 0 -59 -2 -59 -23 0 -12 -7 -33
-16 -45 -23 -33 -93 -28 -111 8 -15 30 -18 237 -3 275 23 60 105 50 126 -15
12 -35 12 -35 70 -35 67 0 72 7 54 74 -13 50 -54 100 -97 117 -50 21 -160 17
-206 -7z"/>
<path d="M3000 2469 l0 -280 144 3 c160 3 181 11 220 78 34 58 22 174 -22 206
-13 9 -12 15 9 43 31 43 33 127 3 168 -38 53 -75 63 -221 63 l-133 0 0 -281z
m234 155 c9 -8 16 -29 16 -45 0 -35 -22 -46 -80 -41 l-40 4 0 49 0 49 44 0
c27 0 51 -6 60 -16z m10 -226 c16 -23 12 -67 -8 -80 -6 -4 -32 -8 -58 -8 l-48
0 0 55 0 55 49 0 c40 0 53 -4 65 -22z"/>
<path d="M4000 2727 c0 -70 -23 -347 -31 -379 -9 -33 -14 -38 -39 -38 -30 0
-30 0 -30 -60 l0 -60 56 0 c50 0 60 4 89 33 19 19 38 52 45 77 10 38 29 230
30 303 0 26 2 27 50 27 l50 0 2 -217 3 -218 58 -3 57 -3 0 281 0 280 -170 0
-170 0 0 -23z"/>
<path d="M5466 2740 c-68 -21 -106 -85 -106 -179 0 -73 11 -105 50 -141 l30
-28 -50 -88 c-28 -49 -50 -95 -50 -101 0 -9 20 -13 68 -13 l68 0 44 90 c40 81
47 90 72 90 l28 0 0 -90 0 -90 65 0 65 0 0 280 0 280 -127 -1 c-71 0 -141 -5
-157 -9z m154 -180 l0 -70 -53 0 c-63 0 -77 11 -77 64 0 56 22 76 82 76 l48 0
0 -70z"/>
<path d="M6770 2469 l0 -281 138 4 c126 3 140 5 171 27 42 31 70 92 71 156 0
124 -57 192 -166 196 -86 2 -84 0 -84 95 l0 84 -65 0 -65 0 0 -281z m234 -25
c16 -16 19 -27 18 -77 -1 -43 -18 -57 -73 -57 l-49 0 0 75 0 75 44 0 c27 0 51
-6 60 -16z"/>
<path d="M7230 2470 l0 -280 60 0 59 0 3 123 c2 73 7 122 13 122 6 0 37 -55
70 -122 l59 -123 73 0 c40 0 73 3 73 6 0 3 -26 52 -57 108 -31 55 -65 116 -75
134 -10 18 -18 39 -18 47 0 8 29 67 65 130 36 63 65 119 65 125 0 6 -28 10
-70 10 l-71 0 -49 -105 c-31 -67 -55 -105 -65 -105 -13 0 -15 17 -15 105 l0
105 -60 0 -60 0 0 -280z"/>
<path d="M7690 2470 l0 -280 59 0 c54 0 60 2 72 28 8 15 41 79 74 142 l60 115
5 -140 5 -140 63 -3 62 -3 0 281 0 280 -59 0 -59 0 -73 -150 c-40 -82 -74
-148 -77 -146 -2 3 -3 70 -3 150 l2 146 -66 0 -65 0 0 -280z"/>
<path d="M2448 2606 c-42 -15 -74 -47 -85 -86 -5 -14 -8 -70 -8 -125 1 -165
37 -210 171 -209 119 0 155 41 162 184 7 139 -26 214 -106 238 -50 15 -87 15
-134 -2z m122 -115 c15 -28 13 -163 -3 -185 -20 -27 -78 -18 -94 14 -16 31
-17 116 -2 159 10 28 15 31 50 31 28 0 41 -5 49 -19z"/>
<path d="M1975 2597 c-3 -7 -4 -100 -3 -207 l3 -195 55 0 55 0 0 150 0 150 48
3 47 3 0 -156 0 -156 53 3 52 3 0 205 0 205 -153 3 c-118 2 -154 0 -157 -11z"/>
<path d="M2742 2413 l3 -48 93 -3 92 -3 0 51 0 50 -96 0 -95 0 3 -47z"/>
</g>
</svg>
